<svg width="1023.62274" height="795.00067" xmlns="http://www.w3.org/2000/svg">
 <title>subscription</title>

 <g>
  <title>background</title>
  <rect fill="none" id="canvas_background" height="602" width="802" y="-1" x="-1"/>
 </g>
 <g>
  <title>Layer 1</title>
  <circle id="svg_1" fill="#dddddd" r="373.0001" cy="373.0001" cx="541.0001"/>
  <path id="svg_2" fill="#3f3d56" d="m912,747.00068c0,15.464 -204.15815,48 -456,48s-456,-32.536 -456,-48s204.15815,-8 456,-8s456,-7.46398 456,8z"/>
  <path id="svg_3" opacity="0.1" d="m912,747.00068c0,15.464 -204.15815,48 -456,48s-456,-32.536 -456,-48s204.15815,-8 456,-8s456,-7.46398 456,8z"/>
  <ellipse id="svg_4" fill="#3f3d56" ry="28" rx="456" cy="747.00067" cx="456"/>
  <ellipse id="svg_5" opacity="0.1" ry="17" rx="184" cy="737.00067" cx="459"/>
  <path id="svg_6" fill="#3f3d56" d="m739,614.91282c0,63.20412 39.65095,114.3481 88.6519,114.3481"/>
  <path id="svg_7" fill="#172b4d" d="m827.6519,729.26092c0,-63.91429 44.24816,-115.63291 98.93038,-115.63291"/>
  <path id="svg_8" fill="#172b4d" d="m771.12025,620.64234c0,60.0372 25.28467,108.61854 56.53165,108.61854"/>
  <path id="svg_9" fill="#3f3d56" d="m827.6519,729.26092c0,-81.66825 51.144,-147.75317 114.3481,-147.75317"/>
  <path id="svg_10" fill="#dddddd" d="m809.00182,730.06709s12.5723,-0.38722 16.36128,-3.0853s19.33936,-5.91973 20.27931,-1.5926s18.89383,21.52115 4.69977,21.63564s-32.98069,-2.21094 -36.76237,-4.51451s-4.57799,-12.44323 -4.57799,-12.44323z"/>
  <path id="svg_11" opacity="0.2" d="m850.59548,745.51854c-14.19406,0.11453 -32.98067,-2.21092 -36.76236,-4.5145c-2.88,-1.7543 -4.02759,-8.04913 -4.41158,-10.95332c-0.26592,0.01143 -0.41971,0.01636 -0.41971,0.01636s0.7963,10.13965 4.578,12.44323s22.5683,4.629 36.76236,4.5145c4.09727,-0.033 5.51253,-1.49079 5.43482,-3.64984c-0.56921,1.30445 -2.13187,2.11898 -5.18153,2.14357z"/>
  <rect id="svg_12" fill="#3f3d56" height="132" width="226" y="612.00067" x="355"/>
  <path id="svg_13" fill="#2f2e41" d="m627.9185,613.12707l-166.62051,0a20.60194,20.60194 0 0 1 -20.60194,-20.60194l0,-76.33726a8.16181,8.16181 0 0 1 2.54685,-5.92346l88.29238,-83.69382a19.00265,19.00265 0 0 1 26.14592,0l84.18211,79.79762a21.33384,21.33384 0 0 1 6.65713,15.48311l0,70.67381a20.60194,20.60194 0 0 1 -20.60194,20.60194z"/>
  <path id="svg_14" opacity="0.1" d="m440.696,517.44126l206.09257,0a0,0 0 0 1 0,0l0,66.95353a28.73228,28.73228 0 0 1 -28.73228,28.73228l-148.628,0a28.73228,28.73228 0 0 1 -28.73229,-28.73228l0,-66.95353a0,0 0 0 1 0,0z"/>
  <path id="svg_15" stroke-miterlimit="10" stroke="#3f3d56" fill="none" d="m440.47956,512.46213"/>
  <rect id="svg_16" fill="#172b4d" rx="11.33557" height="153.27049" width="153.27049" y="451.84668" x="467.75651"/>
  <polygon id="svg_17" opacity="0.1" points="621.027 520.883 621.027 605.117 467.757 605.117 467.757 520.883 544.392 557.924 621.027 520.883"/>
  <path id="svg_18" fill="#2f2e41" d="m544.39176,562.68634l-98.19439,-47.46058a3.9841,3.9841 0 0 0 -5.71785,3.58708l0,81.65761a12.44014,12.44014 0 0 0 12.44015,12.44014l182.9441,0a12.44015,12.44015 0 0 0 12.44015,-12.44014l0,-80.25876a4.86167,4.86167 0 0 0 -6.97731,-4.37719l-96.93485,46.85184z"/>
  <rect id="svg_19" fill="#f2f2f2" height="6.06154" width="42.86378" y="465.91813" x="480.96202"/>
  <rect id="svg_20" fill="#f2f2f2" height="3.46374" width="127.29244" y="487.99947" x="477.49828"/>
  <rect id="svg_21" fill="#f2f2f2" height="3.46374" width="127.29244" y="499.68959" x="477.49828"/>
  <rect id="svg_22" fill="#f2f2f2" height="3.46374" width="127.29244" y="511.37971" x="477.49828"/>
  <ellipse id="svg_23" fill="#fff" ry="17.78395" rx="17.75167" cy="454.26029" cx="474.03454"/>
  <path id="svg_24" fill="#57b894" d="m474.03454,433.44557a21.21541,21.21541 0 1 0 21.21541,21.2154a21.27777,21.27777 0 0 0 -21.21541,-21.2154zm-4.35528,32.52689l-10.87289,-10.8729l3.04971,-3.04971l7.83338,7.83338l16.53374,-16.53374l3.04972,3.04971l-19.59366,19.57326z"/>
  <rect id="svg_25" fill="#3f3d56" height="192" width="460" y="111.0084" x="563.62274"/>
  <path id="svg_26" fill="#ff6584" d="m749.45346,259.0084l-52,0a181.87191,181.87191 0 0 1 0,-62l52,0a111.55883,111.55883 0 0 0 0,62z"/>
  <path id="svg_27" fill="#ff6584" d="m894.78418,259.0084l-52,0a181.87191,181.87191 0 0 1 0,-62l52,0a111.55883,111.55883 0 0 0 0,62z"/>
  <path id="svg_28" fill="#172b4d" d="m675.62274,217.0084l-52,0a181.87242,181.87242 0 0 1 0,-62l52,0a111.55883,111.55883 0 0 0 0,62z"/>
  <path id="svg_29" fill="#172b4d" d="m768.62274,217.0084l52,0a181.87242,181.87242 0 0 0 0,-62l-52,0a111.559,111.559 0 0 1 0,62z"/>
  <path id="svg_30" fill="#172b4d" d="m911.62274,217.0084l52,0a181.87242,181.87242 0 0 0 0,-62l-52,0a111.559,111.559 0 0 1 0,62z"/>
  <path id="svg_31" fill="#2f2e41" d="m253.87948,161.93014a7.4308,7.4308 0 0 0 -4.30988,0.96279a11.24267,11.24267 0 0 0 -2.91528,3.84791a46.02889,46.02889 0 0 1 -12.53915,14.164c-3.72584,2.7295 -8.46268,6.13278 -7.82522,11.16522a15.09068,15.09068 0 0 0 1.8161,4.71317c3.43712,6.93836 12.81653,12.30025 11.89395,20.2175c3.41493,-5.71689 -1.15277,-8.54368 2.26216,-14.26057c1.62626,-2.7225 4.45136,-5.79574 6.90669,-4.086c0.82212,0.57248 1.36193,1.59925 2.21793,2.10155c2.04252,1.19858 4.21547,-1.0928 6.0235,-2.71586c6.23458,-5.59676 15.10074,-4.13054 22.859,-2.38672c3.66268,0.82325 7.68572,1.90334 9.85089,5.404c2.84674,4.60259 -2.70467,9.57344 -4.10732,14.77713a2.83544,2.83544 0 0 0 3.043,3.52881c2.32792,-0.22964 5.08559,-0.41785 5.22335,-1.43939c2.92888,0.10427 6.51764,-0.22744 7.77256,-3.2772a12.824,12.824 0 0 0 0.6016,-3.72952c0.46059,-5.12293 2.63487,-9.79658 4.07527,-14.6724s2.06671,-10.59 -0.36407,-14.91292a17.25553,17.25553 0 0 0 -3.18466,-3.87059c-13.79418,-13.34927 -31.93053,-15.55071 -49.30042,-15.53091z"/>
  <path id="svg_32" fill="#a0616a" d="m243,227.00068s3,25 -8,27s10,36 10,36l50,6l-12,-40s-8,-3 -3,-23s-37,-6 -37,-6z"/>
  <polygon id="svg_33" fill="#a0616a" points="212.5 656.501 216.5 711.501 237.5 711.501 231.5 656.501 212.5 656.501"/>
  <polygon id="svg_34" fill="#a0616a" points="366.5 552.501 369.5 598.501 392.5 588.501 383.5 550.501 366.5 552.501"/>
  <path id="svg_35" fill="#2f2e41" d="m197.5,446.50068s1,58 7,77s5,20 4,23s-2,1 -2,6s-2,84 0,91s-6,19 0,20s34,0 35,-6s-8,-8 -4,-12s10,-86 10,-86l14,-57l26,-30l55,0l17,66s-7,19 -2,19s35,6 35,-16s-10,-87 -12,-89s1,-9 -2,-12s-38,-24 -51,-28s-31.23672,-8.7608 -31.23672,-8.7608l-98.76328,42.7608z"/>
  <path id="svg_36" fill="#2f2e41" d="m392.5,580.50068s-15,-5 -22,10s-4,19 -4,19s23,8 27,4c1.74031,-1.74031 7.26648,-2.34487 12.95479,-2.47252c8.66352,-0.19443 10.96851,-12.45138 2.78636,-15.30562q-0.36612,-0.12771 -0.74115,-0.22186c-8,-2 -16,-15 -16,-15z"/>
  <circle id="svg_37" fill="#a0616a" r="30" cy="213.50067" cx="265.5"/>
  <path id="svg_38" fill="#172b4d" d="m226.5,266.50068s49,10 61,-6s17,45 17,45l6,64l-9,35s-47,38 -62,41s-38,5 -38,5s7,-111 7,-113s18,-71 18,-71z"/>
  <path id="svg_39" fill="#23467a" d="m241.40209,247.74601s-10.90209,-6.24533 -13.90209,-0.24533s-31,21 -34,21s6,83 2,93s-23,83 -12,89s3,-6 14,9s65,15 68,9s-24,-51 -19,-93s13,-100 6,-108s-11.09791,-19.75467 -11.09791,-19.75467z"/>
  <path id="svg_40" fill="#23467a" d="m277.5,254.50068l1.3929,-4.79354s41.6071,13.79354 43.6071,22.79354s1,72 -6,77s-17,13 -10,25s15,25 21,26s17,8 14,15s-39,-6 -39,-6s-24,-18 -23,-46s-2,-109 -2,-109z"/>
  <path id="svg_41" fill="#a0616a" d="m312.5,372.50068l-24,45s-35,36 -15,40s31,-33 31,-33l26,-37l-18,-15z"/>
  <path id="svg_42" fill="#2f2e41" d="m255.34091,169.77957a6.809,6.809 0 0 0 -3.50843,0.68049a8.17745,8.17745 0 0 0 -2.37315,2.71968a34.55082,34.55082 0 0 1 -10.2074,10.011c-3.033,1.92919 -6.889,4.33461 -6.37,7.89151a9.86807,9.86807 0 0 0 1.47838,3.33123a26.20321,26.20321 0 0 1 3.184,16.33228l8.33968,-12.122c1.32385,-1.92425 3.6236,-4.09639 5.62234,-2.88795c0.66923,0.40462 1.10866,1.13034 1.80548,1.48536c1.6627,0.84714 3.43157,-0.77239 4.90339,-1.91956c5.0752,-3.95575 12.29263,-2.91943 18.60821,-1.68691c2.98157,0.58187 6.25649,1.34526 8.019,3.81949c2.929,4.11169 -0.12942,10.05277 1.58,14.80281a4.36387,4.36387 0 0 0 1.80562,-2.88165c2.38423,0.0737 5.30563,-0.16075 6.32719,-2.3163a7.98136,7.98136 0 0 0 0.48972,-2.636c0.375,-3.62085 2.1449,-6.92416 3.31745,-10.37036s1.68238,-7.48491 -0.29637,-10.54035a12.7536,12.7536 0 0 0 -2.59245,-2.7357c-11.2291,-9.43511 -25.99287,-10.99108 -40.13266,-10.97707z"/>
  <path id="svg_43" fill="#23467a" d="m312.5,268.50068l9.31712,2.47308s21.68288,55.52692 16.68288,93.52692s-8,30 -8,30s-8,-18 -26,-14l8,-112z"/>
  <path id="svg_44" fill="#2f2e41" d="m213.88546,704.23192c-2.41147,3.277 -1.928,7.96135 -4.06406,11.42416c-1.8516,3.00161 -5.34113,4.57544 -7.65712,7.23519a19.39462,19.39462 0 0 0 -1.96864,2.83187c-2.14841,3.59866 -3.89467,8.21079 -1.77877,11.82867c1.70211,2.91036 5.27988,4.04783 8.5611,4.82308c4.14726,0.97987 8.4563,1.76409 12.65145,1.01531s8.29512,-3.31759 9.79091,-7.3079a28.2303,28.2303 0 0 1 1.04688,-2.95421c2.27381,-4.4764 9.40591,-4.52478 11.733,-8.97372c1.62853,-3.11346 0.13151,-6.87689 -1.36489,-10.056l-4.57034,-9.70963c-1.5167,-3.22219 -7.66515,-1.36915 -10.87048,-2.14129c-4.18042,-1.007 -8.50166,-2.1165 -11.50904,1.98447z"/>
  <polygon id="svg_45" fill="#172b4d" points="234.202 479.085 251.934 503.23 321.083 467.503 325.072 465.451 238.676 459.871 234.202 479.085"/>
  <polygon id="svg_46" opacity="0.2" points="235.165 480.395 251.934 503.23 321.083 467.503 235.165 480.395"/>
  <polygon id="svg_47" fill="#172b4d" points="228.704 507.245 231.911 486.306 325.42 465.471 228.704 507.245"/>
  <path id="svg_48" fill="#a0616a" d="m180.5,392.50068l42,65s26,33 34,18s-28,-40 -28,-40l-27,-50l-21,7z"/>
  <path id="svg_49" fill="#23467a" d="m201.5,270.50068l-8,-2s-16,5 -20,26s-1,105 4,106s24.69494,-14.6261 27.84747,-11.313s-6.84747,-13.687 -3.84747,-22.687s0,-96 0,-96z"/>
 </g>
</svg>