<svg width="1020" height="612" xmlns="http://www.w3.org/2000/svg">
 <title>online_organizer</title>

 <g>
  <title>background</title>
  <rect fill="none" id="canvas_background" height="602" width="802" y="-1" x="-1"/>
 </g>
 <g>
  <title>Layer 1</title>
  <path id="svg_1" fill="#f2f2f2" d="m279.75916,611.19685l-26.49227,-74.17837s29.1415,14.57075 30.46612,33.11534c0,0 -6.62307,-92.723 -19.86921,-112.59217c0,0 21.19382,2.64923 45.03687,105.9691c0,0 3.97384,-119.21524 -31.79073,-153.6552c0,0 49.01071,39.73842 52.98455,125.83831l0,75.503l-50.33533,-0.00001z"/>
  <path id="svg_2" fill="#f2f2f2" d="m776.59028,611.19685l-6.36981,-17.83546s7.00679,3.50339 7.32528,7.96226c0,0 -1.59245,-22.29433 -4.77735,-27.07168c0,0 5.09584,0.637 10.82867,25.47923c0,0 0.95547,-28.66414 -7.64377,-36.94488c0,0 11.78414,9.55471 12.73961,30.25658l0,18.154l-12.10263,-0.00005z"/>
  <circle id="svg_3" fill="#DDDDDD" r="116.45669" cy="341.33858" cx="658.58268"/>
  <rect id="svg_4" fill="#DDDDDD" height="152.59843" width="274.67717" y="8.83465"/>
  <rect id="svg_5" fill="#DDDDDD" height="152.59843" width="274.67717" y="8.83465" x="372.66142"/>
  <rect id="svg_6" fill="#DDDDDD" height="152.59843" width="274.67717" y="8.83465" x="745.32283"/>
  <path id="svg_7" fill="#3f3d56" d="m706.08615,611.61568c-0.18431,-0.30118 -4.53026,-7.55776 -6.03695,-22.62623c-1.382,-13.82453 -0.49334,-37.12685 11.59155,-69.63166c22.89447,-61.5782 -5.27616,-111.26289 -5.564,-111.7578l1.38983,-0.80628c0.07294,0.12549 7.34207,12.79313 11.63625,32.96443a143.81285,143.81285 0 0 1 -5.95617,80.15966c-22.85525,61.4731 -5.86362,90.57394 -5.6895,90.861l-1.37101,0.83688z"/>
  <circle id="svg_8" fill="#172b4d" r="10.44094" cy="393.54331" cx="697.13386"/>
  <circle id="svg_9" fill="#3f3d56" r="10.44094" cy="432.09449" cx="730.06299"/>
  <circle id="svg_10" fill="#172b4d" r="10.44094" cy="457.79528" cx="707.5748"/>
  <circle id="svg_11" fill="#172b4d" r="10.44094" cy="479.48031" cx="734.88189"/>
  <circle id="svg_12" fill="#3f3d56" r="10.44094" cy="513.2126" cx="699.54331"/>
  <path id="svg_13" fill="#3f3d56" d="m712.3937,612s-10.44094,-25.70079 20.88189,-44.97638l-20.88189,44.97638z"/>
  <path id="svg_14" fill="#3f3d56" d="m699.553,611.5338s-4.75177,-27.33065 -41.52966,-27.09641l41.52966,27.09641z"/>
  <rect id="svg_15" fill="#172b4d" height="13.65354" width="273.87402" x="0.40157"/>
  <rect id="svg_16" fill="#172b4d" height="13.65354" width="274.67717" x="373.06299"/>
  <rect id="svg_17" fill="#172b4d" height="13.65354" width="273.87402" x="745.72441"/>
  <rect id="svg_18" fill="#fff" height="35.33858" width="49.79528" y="34.93701" x="20.88189"/>
  <rect id="svg_19" fill="#fff" height="4.01575" width="137.33858" y="34.93701" x="116.45669"/>
  <rect id="svg_20" fill="#fff" height="4.01575" width="137.33858" y="51" x="116.45669"/>
  <rect id="svg_21" fill="#fff" height="4.01575" width="137.33858" y="67.06299" x="116.45669"/>
  <rect id="svg_22" fill="#fff" height="35.33858" width="49.79528" y="34.93701" x="393.54331"/>
  <rect id="svg_23" fill="#fff" height="4.01575" width="137.33858" y="34.93701" x="489.11811"/>
  <rect id="svg_24" fill="#fff" height="4.01575" width="137.33858" y="51" x="489.11811"/>
  <rect id="svg_25" fill="#fff" height="4.01575" width="137.33858" y="67.06299" x="489.11811"/>
  <rect id="svg_26" fill="#fff" height="35.33858" width="49.79528" y="34.93701" x="766.20472"/>
  <rect id="svg_27" fill="#fff" height="4.01575" width="137.33858" y="34.93701" x="861.77953"/>
  <rect id="svg_28" fill="#fff" height="4.01575" width="137.33858" y="51" x="861.77953"/>
  <rect id="svg_29" fill="#fff" height="4.01575" width="137.33858" y="67.06299" x="861.77953"/>
  <circle id="svg_30" fill="#172b4d" r="16.06299" cy="53.00787" cx="45.77953"/>
  <circle id="svg_31" fill="#172b4d" r="16.06299" cy="53.00787" cx="791.10236"/>
  <rect id="svg_32" fill="#3f3d56" height="4.8189" width="1.6063" y="161.43307" x="126.71411"/>
  <path id="svg_33" fill="#3f3d56" d="m128.3204,359.00787l-1.60629,0l0,-9.63779l1.60629,0l0,9.63779zm0,-19.27559l-1.60629,0l0,-9.63779l1.60629,0l0,9.63779zm0,-19.27559l-1.60629,0l0,-9.63779l1.60629,0l0,9.63779zm0,-19.27559l-1.60629,0l0,-9.63779l1.60629,0l0,9.63779zm0,-19.27559l-1.60629,0l0,-9.63779l1.60629,0l0,9.63779zm0,-19.27559l-1.60629,0l0,-9.63779l1.60629,0l0,9.63779zm0,-19.27559l-1.60629,0l0,-9.63779l1.60629,0l0,9.63779zm0,-19.27559l-1.60629,0l0,-9.6378l1.60629,0l0,9.6378zm0,-19.27559l-1.60629,0l0,-9.6378l1.60629,0l0,9.6378zm0,-19.27559l-1.60629,0l0,-9.6378l1.60629,0l0,9.6378z"/>
  <polygon id="svg_34" fill="#3f3d56" points="132.336 374.268 126.714 374.268 126.714 368.646 128.32 368.646 128.32 372.661 132.336 372.661 132.336 374.268"/>
  <path id="svg_35" fill="#3f3d56" d="m868.1608,374.26772l-9.68172,0l0,-1.6063l9.68172,0l0,1.6063zm-19.36343,0l-9.68172,0l0,-1.6063l9.68172,0l0,1.6063zm-19.36344,0l-9.6825,0l0,-1.6063l9.6825,0l0,1.6063zm-19.36422,0l-9.68171,0l0,-1.6063l9.68171,0l0,1.6063zm-19.36343,0l-9.6825,0l0,-1.6063l9.6825,0l0,1.6063zm-19.36422,0l-9.68172,0l0,-1.6063l9.68172,0l0,1.6063zm-19.36344,0l-9.6825,0l0,-1.6063l9.6825,0l0,1.6063zm-19.36422,0l-9.68171,0l0,-1.6063l9.68171,0l0,1.6063zm-19.36343,0l-9.6825,0l0,-1.6063l9.6825,0l0,1.6063zm-19.36422,0l-9.68175,0l0,-1.6063l9.68172,0l0.00003,1.6063zm-19.36344,0l-9.6825,0l0,-1.6063l9.6825,0l0,1.6063zm-19.36421,0l-9.68172,0l0,-1.6063l9.68172,0l0,1.6063zm-19.36344,0l-9.6825,0l0,-1.6063l9.6825,0l0,1.6063zm-19.36422,0l-9.68172,0l0,-1.6063l9.68172,0l0,1.6063zm-19.36343,0l-9.68251,0l0,-1.6063l9.6825,0l0.00001,1.6063zm-19.36422,0l-9.68172,0l0,-1.6063l9.68172,0l0,1.6063zm-19.36344,0l-9.6825,0l0,-1.6063l9.6825,0l0,1.6063zm-19.36422,0l-9.68172,0l0,-1.6063l9.68172,0l0,1.6063zm-19.36343,0l-9.68211,0l0,-1.6063l9.68211,0l0,1.6063zm-19.36383,0l-9.68211,0l0,-1.6063l9.68211,0l0,1.6063zm-19.36383,0l-9.68211,0l0,-1.6063l9.68207,0l0.00004,1.6063zm-19.36382,0l-9.68211,0l0,-1.6063l9.68211,0l0,1.6063zm-19.36383,0l-9.68211,0l0,-1.6063l9.68211,0l0,1.6063zm-19.36383,0l-9.68211,0l0,-1.6063l9.68211,0l0,1.6063zm-19.36383,0l-9.68211,0l0,-1.6063l9.68211,0l0,1.6063zm-19.36382,0l-9.68211,0l0,-1.6063l9.68211,0l0,1.6063zm-19.36383,0l-9.68208,0l0,-1.6063l9.68211,0l-0.00003,1.6063zm-19.36383,0l-9.68211,0l0,-1.6063l9.68211,0l0,1.6063zm-19.36383,0l-9.6821,0l0,-1.6063l9.6821,0l0,1.6063zm-19.36382,0l-9.68211,0l0,-1.6063l9.68211,0l0,1.6063zm-19.36383,0l-9.68211,0l0,-1.6063l9.68211,0l0,1.6063zm-19.36383,0l-9.68171,0l0,-1.6063l9.68171,0l0,1.6063zm-19.36382,0l-9.68172,0l0,-1.6063l9.68172,0l0,1.6063zm-19.36383,0l-9.68172,0l0,-1.6063l9.68172,0l0,1.6063zm-19.36383,0l-9.68172,0l0,-1.6063l9.68172,0l0,1.6063zm-19.36383,0l-9.68171,0l0,-1.6063l9.68171,0l0,1.6063zm-19.36382,0l-9.68172,0l0,-1.6063l9.68172,0l0,1.6063zm-19.36383,0l-9.68172,0l0,-1.6063l9.68174,0l-0.00002,1.6063z"/>
  <polygon id="svg_36" fill="#3f3d56" points="883.465 374.268 877.843 374.268 877.843 372.661 881.858 372.661 881.858 368.646 883.465 368.646 883.465 374.268"/>
  <path id="svg_37" fill="#3f3d56" d="m883.46457,359.00787l-1.6063,0l0,-9.63779l1.6063,0l0,9.63779zm0,-19.27559l-1.6063,0l0,-9.63779l1.6063,0l0,9.63779zm0,-19.27559l-1.6063,0l0,-9.63779l1.6063,0l0,9.63779zm0,-19.27559l-1.6063,0l0,-9.63779l1.6063,0l0,9.63779zm0,-19.27559l-1.6063,0l0,-9.63779l1.6063,0l0,9.63779zm0,-19.27559l-1.6063,0l0,-9.63779l1.6063,0l0,9.63779zm0,-19.27559l-1.6063,0l0,-9.63779l1.6063,0l0,9.63779zm0,-19.27559l-1.6063,0l0,-9.6378l1.6063,0l0,9.6378zm0,-19.27559l-1.6063,0l0,-9.6378l1.6063,0l0,9.6378zm0,-19.27559l-1.6063,0l0,-9.6378l1.6063,0l0,9.6378z"/>
  <rect id="svg_38" fill="#3f3d56" height="4.8189" width="1.6063" y="161.43307" x="881.85827"/>
  <rect id="svg_39" fill="#3f3d56" height="285.92126" width="274.67717" y="325.27559" x="372.66142"/>
  <rect id="svg_40" fill="#fff" height="35.33858" width="49.79528" y="362.62205" x="393.54331"/>
  <rect id="svg_41" fill="#fff" height="4.01575" width="137.33858" y="362.62205" x="489.11811"/>
  <rect id="svg_42" fill="#fff" height="4.01575" width="137.33858" y="378.68504" x="489.11811"/>
  <rect id="svg_43" fill="#fff" height="4.01575" width="137.33858" y="394.74803" x="489.11811"/>
  <rect id="svg_44" fill="#fff" height="35.33858" width="49.79528" y="489.92126" x="393.54331"/>
  <rect id="svg_45" fill="#fff" height="4.01575" width="137.33858" y="489.92126" x="489.11811"/>
  <rect id="svg_46" fill="#fff" height="4.01575" width="137.33858" y="505.98425" x="489.11811"/>
  <rect id="svg_47" fill="#fff" height="4.01575" width="137.33858" y="522.04724" x="489.11811"/>
  <polygon id="svg_48" fill="#172b4d" points="418.652 389.229 401.607 366.503 405.645 363.475 419.53 381.989 454.923 353.324 458.119 357.23 418.652 389.229"/>
  <polygon id="svg_49" fill="#172b4d" points="418.652 515.324 401.607 492.598 405.645 489.57 419.53 508.083 454.923 479.418 458.119 483.325 418.652 515.324"/>
  <rect id="svg_50" fill="#3f3d56" height="1.6063" width="991.88976" y="610.3937" x="7.22835"/>
  <path id="svg_51" fill="#3f3d56" d="m544.57387,170.26772s26.50393,-11.54886 38.95275,0.65077s-33.33071,8.18387 -38.95275,-0.65077z"/>
  <path id="svg_52" fill="#2f2e41" d="m590.33918,115.49668c-8.90681,-15.04974 -26.52821,-15.75113 -26.52821,-15.75113s-17.171,-2.19581 -28.18616,20.72513c-10.267,21.3642 -24.4367,41.99177 -2.28122,46.993l4.00193,-12.45578l2.47837,13.3831a86.68625,86.68625 0 0 0 9.47951,0.162c23.72674,-0.766 46.32287,0.22413 45.59531,-8.29c-0.96717,-11.31841 4.0106,-30.28546 -4.55953,-44.76632z"/>
  <path id="svg_53" fill="#ffb8b8" d="m602.80221,388.32283s-11.24409,20.88189 -18.47244,20.88189s-6.4252,13.65355 -4.8189,16.86615s5.62205,10.44094 -0.80315,20.88189c-2.24432,3.647 -1.84284,7.784 -0.37009,11.62368c4.12646,10.75826 20.17827,7.49888 19.66619,-4.01223q-0.00848,-0.19035 -0.02051,-0.38311c-0.80315,-12.85039 5.62205,-32.92913 12.04725,-37.748s12.04724,-17.66929 12.04724,-17.66929l-19.27559,-10.44098z"/>
  <path id="svg_54" fill="#ffb8b8" d="m525.69985,383.50394s11.24409,20.88189 18.47244,20.88189s6.4252,13.65354 4.8189,16.86614s-5.622,10.44094 0.80315,20.88189c2.24432,3.647 1.84284,7.784 0.37009,11.62368c-4.12646,10.75827 -20.17827,7.49888 -19.66619,-4.01223q0.00847,-0.19035 0.02051,-0.38311c0.80315,-12.85039 -5.622,-32.92913 -12.04725,-37.748s-12.04724,-17.66929 -12.04724,-17.66929l19.27559,-10.44097z"/>
  <path id="svg_55" fill="#2f2e41" d="m534.53449,280.70079l-4.81889,10.44094s-70.67717,23.29134 -64.252,50.59843s37.748,69.874 42.56693,68.26771s30.51968,-6.42519 31.32283,-20.07874s-18.47244,-37.748 -18.47244,-37.748l26.50394,-24.09449l38.56752,-0.80315l32.91282,24.89761s-34.53543,30.51969 -19.27559,42.56693s37.748,20.07874 40.96063,15.25984s39.35433,-76.29921 33.73229,-82.72441s-62.64567,-30.51968 -62.64567,-30.51968l-15.25985,-21.685l-59.43307,-3.2126l-2.40945,8.83461z"/>
  <path id="svg_56" fill="#ffb8b8" d="m548.99119,148.1811s4.01575,26.50394 -4.01575,29.71654s16.063,16.86614 16.063,16.86614l13.65356,0l8.83464,-18.47244s-8.0315,-14.45669 -3.2126,-28.11024s-31.32285,0 -31.32285,0z"/>
  <path id="svg_57" opacity="0.1" d="m548.99119,148.1811s4.01575,26.50394 -4.01575,29.71654s16.063,16.86614 16.063,16.86614l13.65356,0l8.83464,-18.47244s-8.0315,-14.45669 -3.2126,-28.11024s-31.32285,0 -31.32285,0z"/>
  <path id="svg_58" fill="#fff" d="m543.36914,170.66929s8.83465,9.6378 10.44095,11.2441s8.83464,10.44094 24.09448,-2.40945s16.86615,2.40945 16.86615,2.40945l0,96.378s-12.8504,-5.622 -23.29134,0s-32.126,-1.6063 -32.126,-1.6063l-4.01575,-99.59055l8.03151,-6.42525z"/>
  <path id="svg_59" fill="#172b4d" d="m549.26859,170.66929s-7.50575,-3.2126 -13.931,0s-28.91338,19.27559 -27.30708,26.50394s22.48824,57.82677 8.03154,81.92126s-16.86614,30.51968 -16.86614,30.51968l35.33858,-18.47244s27.30709,-16.86614 24.89764,-27.30708s-10.16354,-93.16536 -10.16354,-93.16536z"/>
  <path id="svg_60" fill="#172b4d" d="m581.12665,170.66929s16.85666,1.6063 17.65981,3.2126s25.29922,8.43307 23.69292,15.66142s-23.69292,71.88189 -14.05512,83.92913s25.70079,28.91339 20.07874,30.51969s-15.25984,-2.40945 -24.89764,0s-32.126,-17.6693 -29.71653,-39.35433s0.01894,-88.34646 7.23782,-93.96851z"/>
  <path id="svg_61" fill="#ffb8b8" d="m540.95969,324.07087l0,8.03149s-4.01575,18.47244 8.83465,17.66929s4.8189,-22.48819 4.8189,-22.48819l-0.80315,-7.22834l-12.8504,4.01575z"/>
  <path id="svg_62" fill="#ffb8b8" d="m577.10142,324.874s-8.83464,18.47244 0,20.07874s15.25985,-10.441 15.25985,-13.65355s-15.25985,-6.42519 -15.25985,-6.42519z"/>
  <ellipse id="svg_63" fill="#ffb8b8" ry="3.2126" rx="1.6063" cy="137.33858" cx="588.74709"/>
  <ellipse id="svg_64" fill="#ffb8b8" ry="3.2126" rx="1.6063" cy="137.33858" cx="541.36127"/>
  <path id="svg_65" fill="#172b4d" d="m602.80221,181.11024s20.07874,0 19.27559,8.03149s-27.30708,146.17327 -27.30708,146.17327s-11.2441,-10.44094 -20.88189,-8.0315l28.91338,-146.17326z"/>
  <path id="svg_66" fill="#172b4d" d="m524.8967,183.51969s-20.07874,4.01574 -20.07874,16.063s28.91339,127.70078 32.92913,127.70078s19.27559,-2.40944 19.27559,-6.42519s-32.12598,-137.33859 -32.12598,-137.33859z"/>
  <path id="svg_67" opacity="0.2" d="m529.314,207.2126l18.07087,70.67s-8.43305,-61.83536 -18.07087,-70.67z"/>
  <path id="svg_68" opacity="0.2" d="m599.60328,197.28263l-18.27637,92.39721s5.84121,-87.06734 18.27637,-92.39721z"/>
  <circle id="svg_69" fill="#ffb8b8" r="23.29134" cy="137.74016" cx="565.05418"/>
  <polygon id="svg_70" fill="#2f2e41" points="586.401 114.046 568.992 104.927 544.951 108.657 539.977 130.626 552.359 130.15 555.818 122.079 555.818 130.017 561.531 129.797 564.847 116.947 566.92 130.626 587.23 130.212 586.401 114.046"/>
 </g>
</svg>